<svg width="68" height="40" viewBox="0 0 68 40" fill="none" xmlns="http://www.w3.org/2000/svg">
<g clip-path="url(#clip0_2_4071)">
<path d="M9.88885 3.10204V14.449C9.88885 14.449 13.8974 14.449 16.0244 14.2857C17.7424 13.9592 17.9878 13.7959 18.315 12.1633L18.9695 9.71429H20.7692L20.442 15.0204L20.6056 20.5714H18.8059L18.315 18.449C17.8242 16.898 17.2515 16.5714 16.0244 16.4898C14.4701 16.3265 9.88885 16.3265 9.88885 16.3265V25.8776C9.88885 27.6735 10.7887 28.4898 12.9975 28.4898H19.4603C21.4237 28.4898 23.4689 28.3265 24.696 25.3878L26.3321 21.7143H27.8865C27.7229 22.449 26.9866 29.2245 26.823 30.7755C26.823 30.7755 21.0147 30.6122 18.5604 30.6122H7.43463H0.808228V28.9796L2.93522 28.4898C4.48956 28.1633 4.9804 27.7551 4.9804 26.5306C4.9804 26.5306 5.14402 22.3673 5.14402 15.5102C5.14402 8.65306 4.9804 4.4898 4.9804 4.4898C4.9804 3.10204 4.48956 2.77551 2.93522 2.53061L0.808228 1.95918V0.326531L7.27101 0.489796H19.5421C21.9963 0.408163 26.1685 0 26.1685 0C26.1685 0 26.0049 2.61224 25.8413 8.73469H24.1233L23.4689 6.61225C22.8962 3.83674 21.9963 2.44898 20.2784 2.44898H10.6251C9.88885 2.44898 9.88885 2.61224 9.88885 3.10204ZM34.7583 4.2449H36.6399V10.6939L42.939 10.3673L42.6118 13.3061L36.4762 12.8163V24.1633C36.4762 27.3469 37.5397 28.6531 39.4213 28.6531C41.0575 28.6531 42.3664 27.7551 42.7754 26.9388L43.6753 28C42.7754 30.1224 40.1576 31.1837 37.7034 31.1837C34.6765 31.1837 32.1405 29.3878 32.1405 25.7959V12.9796H28.4591V11.4286C31.5678 11.1837 33.8584 9.30612 34.7583 4.2449ZM48.0111 24.0816L49.2382 27.0204C49.729 28.2449 50.7925 29.4694 53.2468 29.4694C55.8646 29.4694 56.9281 28.0816 56.9281 26.3673C56.9281 21.1429 46.6204 22.6939 46.6204 15.5918C46.6204 11.5918 49.8109 9.71429 53.983 9.71429C55.8646 9.71429 58.5643 10.0408 59.955 10.6122C59.6277 12.1633 59.4641 14.1224 59.4641 15.6735L57.9098 15.8367L56.8463 12.7347C56.5191 12 55.292 11.3469 53.7376 11.3469C51.856 11.3469 50.0563 12.0816 50.0563 14.1224C50.0563 18.8571 60.6912 17.7959 60.6912 24.898C60.6912 28.898 57.1735 31.0204 52.8377 31.0204C49.6472 31.0204 46.3749 29.7959 46.3749 29.7959C46.7022 28 46.5386 25.9592 46.3749 24C46.4568 24.0816 48.0111 24.0816 48.0111 24.0816ZM59.955 38.7755C60.4458 37.0612 60.6912 34.9388 61.0185 32.9796L62.7364 32.8163L63.3909 36C63.5545 36.7347 63.9635 37.3878 65.1906 37.3878C67.154 37.3878 69.7719 36.1633 72.3079 31.8367C71.2444 29.2245 67.9721 20.8163 65.027 14.3673C64.2908 12.6531 64.1271 12.4898 63.0637 12.2449L62.2456 11.9184V10.3673L66.9086 10.5306L72.5533 10.2041V11.7551L71.1626 12.0816C70.0991 12.2449 69.6082 12.8163 69.6082 13.4694C69.6082 13.6327 69.6082 13.7959 69.7719 14.1224C70.0991 15.0204 72.5533 21.9592 74.3531 26.5306C75.9074 23.3469 78.7707 16.0816 79.2615 14.8571C79.4251 14.2041 79.5888 14.1224 79.5888 13.6327C79.5888 12.8163 79.0979 12.4082 78.0344 12.0816L76.9709 11.7551V10.2041L81.3067 10.3673L85.3153 10.2041V11.7551L84.579 12.3265C83.0247 12.9796 82.861 13.0612 82.2884 14.3673L75.4984 30.2041C71.4898 39.2653 67.3176 40 64.4544 40C62.5728 40 61.1821 39.5102 59.955 38.7755Z" fill="white" fill-opacity="0.5"/>
</g>
<defs>
<clipPath id="clip0_2_4071">
<rect width="84.507" height="40" fill="white" transform="translate(0.808228)"/>
</clipPath>
</defs>
</svg>
